<?xml version="1.0" encoding="utf-8"?>
<!-- Generator: Adobe Illustrator 23.0.4, SVG Export Plug-In . SVG Version: 6.00 Build 0)  -->
<svg version="1.1" id="Calque_1" xmlns="http://www.w3.org/2000/svg" xmlns:xlink="http://www.w3.org/1999/xlink" x="0px" y="0px"
	 viewBox="0 0 1024 1024" style="enable-background:new 0 0 1024 1024;" xml:space="preserve">
<style type="text/css">
	.st0{fill:none;stroke:#464646;stroke-width:39.3604;stroke-linecap:round;stroke-linejoin:round;stroke-miterlimit:10;}
	.st1{fill:#FFFFFF;stroke:#464646;stroke-width:39.3604;stroke-linecap:round;stroke-linejoin:round;stroke-miterlimit:10;}
	.st2{fill:#D7D7D7;stroke:#464646;stroke-width:39.3604;stroke-linecap:round;stroke-linejoin:round;stroke-miterlimit:10;}
	.st3{fill:#464646;}
	.st4{fill:none;stroke:#464646;stroke-width:26.2403;stroke-linecap:round;stroke-linejoin:round;stroke-miterlimit:10;}
</style>
<g>
	<g>
		<g>
			<line class="st0" x1="154.1" y1="752.5" x2="869.9" y2="752.5"/>
			<rect x="453.2" y="370.5" class="st1" width="326.7" height="382"/>
			<rect x="240.5" y="271.5" class="st2" width="382" height="481.1"/>
			<rect x="359.9" y="640.7" class="st1" width="148.8" height="111.8"/>
		</g>
		<g>
			<g>
				<rect x="326.1" y="362.5" class="st3" width="46.3" height="34.1"/>
				<rect x="403.7" y="362.5" class="st3" width="46.3" height="34.1"/>
				<rect x="481.4" y="362.5" class="st3" width="46.3" height="34.1"/>
			</g>
			<g>
				<rect x="326.1" y="440" class="st3" width="46.3" height="34.1"/>
				<rect x="403.7" y="440" class="st3" width="46.3" height="34.1"/>
				<rect x="481.4" y="440" class="st3" width="46.3" height="34.1"/>
			</g>
			<g>
				<rect x="326.1" y="517.5" class="st3" width="46.3" height="34.1"/>
				<rect x="403.7" y="517.5" class="st3" width="46.3" height="34.1"/>
				<rect x="481.4" y="517.5" class="st3" width="46.3" height="34.1"/>
			</g>
		</g>
	</g>
	<line class="st4" x1="642.7" y1="457" x2="714.8" y2="457"/>
	<line class="st4" x1="642.7" y1="542.1" x2="714.8" y2="542.1"/>
	<line class="st4" x1="642.7" y1="627.2" x2="714.8" y2="627.2"/>
</g>
</svg>
